<svg xmlns="http://www.w3.org/2000/svg" viewBox="0 0 64 64">
  <defs>
    <linearGradient id="bg" x1="32" y1="0" x2="32" y2="64" gradientUnits="userSpaceOnUse">
      <stop offset="0" stop-color="#061A31"/>
      <stop offset="0.58" stop-color="#082B48"/>
      <stop offset="1" stop-color="#245472"/>
    </linearGradient>
    <linearGradient id="mark" x1="32" y1="10" x2="32" y2="54" gradientUnits="userSpaceOnUse">
      <stop offset="0" stop-color="#F8FCFF"/>
      <stop offset="1" stop-color="#B7CEDC"/>
    </linearGradient>
  </defs>
  <rect width="64" height="64" rx="9" fill="url(#bg)"/>
  <path fill="url(#mark)" d="M10.2 54c-1.3 0-2.1-1.4-1.4-2.5L36.1 8.9C37.2 7.1 39.1 6 41.2 6h9.4c1.9 0 3.4 1.5 3.4 3.4v41.2c0 1.9-1.5 3.4-3.4 3.4h-5.8c-2.2 0-4.2-1.1-5.3-2.9L28 34.7 18.4 52.3c-.6 1.1-1.7 1.7-3 1.7h-5.2Z"/>
  <path fill="url(#bg)" d="M38.9 25.2 32.4 36c-.4.7-.4 1.5.1 2.1l6.4 9.2c.7 1 2.3.5 2.3-.7V26c0-1.2-1.6-1.8-2.3-.8Z"/>
</svg>
