<svg xmlns="http://www.w3.org/2000/svg" viewBox="0 0 64 64">
  <defs>
    <linearGradient id="bg" x1="32" y1="0" x2="32" y2="64" gradientUnits="userSpaceOnUse">
      <stop offset="0" stop-color="#03162B"/>
      <stop offset="0.58" stop-color="#062744"/>
      <stop offset="1" stop-color="#245574"/>
    </linearGradient>
    <linearGradient id="mark" x1="32" y1="8" x2="32" y2="56" gradientUnits="userSpaceOnUse">
      <stop offset="0" stop-color="#FFFFFF"/>
      <stop offset="1" stop-color="#B8CFDC"/>
    </linearGradient>
  </defs>
  <rect width="64" height="64" fill="url(#bg)"/>
  <path fill="url(#mark)" d="M8 55.2c-.9 0-1.5-1-1-1.8L34.5 9.5c1.6-2.6 4.4-4.2 7.4-4.2h6.5c4.4 0 7.9 3.5 7.9 7.9v34.1c0 4.4-3.5 7.9-7.9 7.9h-5.8c-3 0-5.8-1.5-7.4-4.1L27.8 39.3l-8.5 14.2c-.6 1.1-1.8 1.7-3.1 1.7H8Z"/>
  <path fill="url(#bg)" d="M37.7 34.4 47.3 20c.6-.9 2-.5 2 .6v26.5c0 1.1-1.4 1.5-2 .6L37.7 36c-.3-.5-.3-1.1 0-1.6Z"/>
</svg>
